# xmcd CD database file
#
# Track frame offsets:
#	150
#	21420
#	39892
#	63305
#	86062
#	97345
#	117020
#	143575
#	166005
#
# Disc length: 2505 seconds
#
# Revision: 0
# Processed by: cddbd v1.5.2PL0 Copyright (c) Steve Scherf et al.
# Submitted via: CDex 2.23
#
DISCID=6d09c709
DTITLE=Spyro Gyra - Catching the sun
DYEAR=1900
DGENRE=Jazz
TTITLE0=Catching The Sun
TTITLE1=Cockatoo
TTITLE2=Autumn Of Our Love
TTITLE3=Laser Material
TTITLE4=Percolator
TTITLE5=Philly
TTITLE6=Lovin' You (Interlude)/Lovin' You
TTITLE7=Here Again
TTITLE8=Safari
EXTD=
EXTT0=
EXTT1=
EXTT2=
EXTT3=
EXTT4=
EXTT5=
EXTT6=
EXTT7=
EXTT8=
PLAYORDER=
